<svg width="51" height="50" viewBox="0 0 51 50" fill="none" xmlns="http://www.w3.org/2000/svg">
<path fill-rule="evenodd" clip-rule="evenodd" d="M18.7075 15.4238C17.0485 16.1818 15.8335 17.9859 15.8335 20.1369C15.8335 22.3339 16.7335 24.0279 18.0215 25.4799C19.0845 26.6759 20.3705 27.6679 21.6245 28.6339C21.9225 28.8639 22.2185 29.0929 22.5095 29.3219C23.0355 29.7369 23.5045 30.0999 23.9575 30.3649C24.4095 30.6289 24.7735 30.7499 25.0835 30.7499C25.3935 30.7499 25.7575 30.6299 26.2095 30.3649C26.6625 30.0999 27.1315 29.7369 27.6575 29.3219C27.9475 29.0919 28.2445 28.8639 28.5425 28.6339C29.7965 27.6679 31.0825 26.6759 32.1455 25.4799C33.4345 24.0279 34.3335 22.3339 34.3335 20.1369C34.3335 17.9869 33.1185 16.1818 31.4595 15.4238C29.9855 14.7508 28.0495 14.8558 26.1555 16.5118L27.6135 17.9699C27.6852 18.039 27.7423 18.1217 27.7817 18.2132C27.821 18.3047 27.8418 18.4031 27.8427 18.5027C27.8436 18.6023 27.8247 18.7011 27.787 18.7932C27.7493 18.8854 27.6937 18.9692 27.6233 19.0397C27.5529 19.1101 27.4692 19.1658 27.377 19.2036C27.2849 19.2413 27.1861 19.2604 27.0866 19.2595C26.987 19.2587 26.8885 19.2381 26.797 19.1988C26.7055 19.1596 26.6227 19.1025 26.5535 19.0309L24.5535 17.0318L24.5435 17.0218C22.4855 14.8818 20.3195 14.6868 18.7075 15.4238ZM25.0835 15.4598C22.7715 13.3898 20.1825 13.0998 18.0835 14.0588C15.8695 15.0738 14.3335 17.4259 14.3335 20.1379C14.3335 22.8029 15.4435 24.8369 16.9005 26.4769C18.0665 27.7899 19.4935 28.8889 20.7545 29.8589C21.0405 30.0789 21.3175 30.2929 21.5805 30.5009C22.0935 30.9049 22.6435 31.3349 23.2005 31.6609C23.7575 31.9859 24.3935 32.251 25.0835 32.251C25.7735 32.251 26.4095 31.9859 26.9665 31.6609C27.5245 31.3349 28.0735 30.9049 28.5865 30.5009C28.8604 30.2851 29.1357 30.0711 29.4125 29.8589C30.6725 28.8889 32.1005 27.7889 33.2665 26.4769C34.7235 24.8369 35.8335 22.8029 35.8335 20.1379C35.8335 17.4259 34.2985 15.0738 32.0835 14.0608C29.9845 13.1008 27.3955 13.3908 25.0835 15.4598Z" fill="#B7B7B7"/>
</svg>
