<svg width="51" height="50" viewBox="0 0 51 50" fill="none" xmlns="http://www.w3.org/2000/svg">
<path d="M35.9167 14.75H15.9167C15.5067 14.75 15.1667 14.41 15.1667 14C15.1667 13.59 15.5067 13.25 15.9167 13.25H35.9167C36.3267 13.25 36.6667 13.59 36.6667 14C36.6667 14.41 36.3267 14.75 35.9167 14.75Z" fill="#B7B7B7"/>
<path d="M24.9167 20.75H15.9167C15.5067 20.75 15.1667 20.41 15.1667 20C15.1667 19.59 15.5067 19.25 15.9167 19.25H24.9167C25.3267 19.25 25.6667 19.59 25.6667 20C25.6667 20.41 25.3267 20.75 24.9167 20.75Z" fill="#B7B7B7"/>
<path d="M21.9167 26.75H15.9167C15.5067 26.75 15.1667 26.41 15.1667 26C15.1667 25.59 15.5067 25.25 15.9167 25.25H21.9167C22.3267 25.25 22.6667 25.59 22.6667 26C22.6667 26.41 22.3267 26.75 21.9167 26.75Z" fill="#B7B7B7"/>
<path d="M19.9167 32.75H15.9167C15.5067 32.75 15.1667 32.41 15.1667 32C15.1667 31.59 15.5067 31.25 15.9167 31.25H19.9167C20.3267 31.25 20.6667 31.59 20.6667 32C20.6667 32.41 20.3267 32.75 19.9167 32.75Z" fill="#B7B7B7"/>
<path d="M25.7569 33.7501C24.1469 33.7501 22.8269 32.4401 22.8269 30.8201C22.8269 29.2101 24.1369 27.8901 25.7569 27.8901C27.3769 27.8901 28.6869 29.2001 28.6869 30.8201C28.6869 32.4401 27.3769 33.7501 25.7569 33.7501ZM25.7569 29.4001C24.9669 29.4001 24.3269 30.0401 24.3269 30.8301C24.3269 31.6201 24.9669 32.2601 25.7569 32.2601C26.5469 32.2601 27.1869 31.6201 27.1869 30.8301C27.1869 30.0401 26.5469 29.4001 25.7569 29.4001Z" fill="#B7B7B7"/>
<path d="M27.9368 31.5701C27.5268 31.5701 27.1868 31.2301 27.1868 30.8201V22.0501C27.1868 20.8401 27.9068 19.8901 29.0768 19.5801L33.4268 18.3901C34.3768 18.1301 35.1968 18.2301 35.7768 18.6801C36.3568 19.1301 36.6568 19.8601 36.6568 20.8701V29.3801C36.6568 29.7901 36.3168 30.1301 35.9068 30.1301C35.4968 30.1301 35.1568 29.7901 35.1568 29.3801V20.8701C35.1568 20.3701 35.0568 20.0201 34.8668 19.8801C34.6768 19.7301 34.2868 19.7201 33.8168 19.8501L29.4668 21.0401C29.1768 21.1201 28.6868 21.3601 28.6868 22.0701V30.8401C28.6868 31.2401 28.3468 31.5701 27.9368 31.5701Z" fill="#B7B7B7"/>
<path d="M33.7369 32.2999C32.1269 32.2999 30.8069 30.9899 30.8069 29.3699C30.8069 27.7599 32.1169 26.4399 33.7369 26.4399C35.3569 26.4399 36.6669 27.7499 36.6669 29.3699C36.6669 30.9899 35.3569 32.2999 33.7369 32.2999ZM33.7369 27.95C32.9469 27.95 32.3069 28.5899 32.3069 29.3799C32.3069 30.1699 32.9469 30.8099 33.7369 30.8099C34.5269 30.8099 35.1669 30.1699 35.1669 29.3799C35.1669 28.5899 34.5269 27.95 33.7369 27.95Z" fill="#B7B7B7"/>
<path d="M27.9369 25.35C27.6069 25.35 27.3069 25.13 27.2169 24.8C27.1069 24.4 27.3469 23.9901 27.7469 23.8801L35.7269 21.7001C36.1269 21.5901 36.5369 21.83 36.6469 22.23C36.7569 22.63 36.5169 23.0401 36.1169 23.1501L28.1369 25.3301C28.0669 25.3401 27.9969 25.35 27.9369 25.35Z" fill="#B7B7B7"/>
</svg>
