<svg width="50" height="50" viewBox="0 0 50 50" fill="none" xmlns="http://www.w3.org/2000/svg">
<g clip-path="url(#clip0_50_807)">
<path d="M25 27.75C24.59 27.75 24.25 27.41 24.25 27V24C24.25 23.59 24.59 23.25 25 23.25C25.41 23.25 25.75 23.59 25.75 24V27C25.75 27.41 25.41 27.75 25 27.75Z" fill="#B7B7B7"/>
<path d="M30.6 31.56H19.4C17.58 31.56 15.92 30.16 15.62 28.37L14.29 20.4C14.07 19.16 14.68 17.57 15.67 16.78L22.6 11.23C23.94 10.15 26.05 10.16 27.4 11.24L34.33 16.78C35.31 17.57 35.91 19.16 35.71 20.4L34.38 28.36C34.08 30.13 32.38 31.56 30.6 31.56ZM24.99 11.93C24.46 11.93 23.93 12.09 23.54 12.4L16.61 17.96C16.05 18.41 15.65 19.45 15.77 20.16L17.1 28.12C17.28 29.17 18.33 30.06 19.4 30.06H30.6C31.67 30.06 32.72 29.17 32.9 28.11L34.23 20.15C34.34 19.45 33.94 18.39 33.39 17.95L26.46 12.41C26.06 12.09 25.52 11.93 24.99 11.93Z" fill="#B7B7B7"/>
</g>
<defs>
<clipPath id="clip0_50_807">
<rect width="50" height="50" fill="white"/>
</clipPath>
</defs>
</svg>
