<svg width="50" height="50" viewBox="0 0 50 50" fill="none" xmlns="http://www.w3.org/2000/svg">
<path d="M25.1601 21.87C25.0601 21.86 24.9401 21.86 24.8301 21.87C22.4501 21.79 20.5601 19.84 20.5601 17.44C20.5601 14.99 22.5401 13 25.0001 13C27.4501 13 29.4401 14.99 29.4401 17.44C29.4301 19.84 27.5401 21.79 25.1601 21.87Z" stroke="#B7B7B7" stroke-width="1.5" stroke-linecap="round" stroke-linejoin="round"/>
<path d="M20.16 25.56C17.74 27.18 17.74 29.82 20.16 31.43C22.91 33.27 27.42 33.27 30.17 31.43C32.59 29.81 32.59 27.17 30.17 25.56C27.43 23.73 22.92 23.73 20.16 25.56Z" stroke="#B7B7B7" stroke-width="1.5" stroke-linecap="round" stroke-linejoin="round"/>
</svg>
