<svg width="41" height="40" viewBox="0 0 41 40" fill="none" xmlns="http://www.w3.org/2000/svg">
<path d="M14.5602 26.74C14.5602 26.74 14.5503 26.74 14.5403 26.74L11.9902 26.73C11.5802 26.73 11.2402 26.39 11.2402 25.98C11.2402 25.57 11.5802 25.23 11.9902 25.23L14.5403 25.24H14.5502C15.2002 25.24 15.8103 24.92 16.1703 24.37L22.5602 14.79C23.2002 13.83 24.2702 13.25 25.4302 13.25C25.4302 13.25 25.4403 13.25 25.4503 13.25L30.0002 13.27C30.4102 13.27 30.7502 13.61 30.7502 14.02C30.7502 14.43 30.4102 14.77 30.0002 14.77L25.4503 14.75H25.4402C24.7902 14.75 24.1803 15.07 23.8203 15.62L17.4302 25.2C16.7902 26.17 15.7202 26.74 14.5602 26.74Z" fill="#A3A3A3"/>
<path d="M27.9999 28.7299C27.8099 28.7299 27.6199 28.6599 27.4699 28.5099C27.1799 28.2199 27.1799 27.7399 27.4699 27.4499L29.4699 25.4499C29.7599 25.1599 30.2399 25.1599 30.5299 25.4499C30.8199 25.7399 30.8199 26.2199 30.5299 26.5099L28.5299 28.5099C28.3799 28.6599 28.1899 28.7299 27.9999 28.7299Z" fill="#A3A3A3"/>
<path d="M17.89 17.38C17.66 17.38 17.43 17.27 17.28 17.07L16.2 15.57C15.83 15.06 15.22 14.76 14.61 14.76L12 14.77C11.54 14.76 11.25 14.44 11.25 14.02C11.25 13.61 11.58 13.27 12 13.27L14.61 13.26C14.62 13.26 14.62 13.26 14.63 13.26C15.74 13.26 16.78 13.8 17.43 14.69L18.51 16.19C18.75 16.53 18.68 16.99 18.34 17.24C18.2 17.33 18.05 17.38 17.89 17.38Z" fill="#A3A3A3"/>
<path d="M25.32 26.7499C24.26 26.7499 23.24 26.2499 22.59 25.4099L21.37 23.84C21.12 23.51 21.18 23.0399 21.5 22.7899C21.83 22.5399 22.3 22.5999 22.55 22.9199L23.77 24.4899C24.14 24.9699 24.73 25.2099 25.32 25.2499L29.99 25.2299C30.4 25.2299 30.74 25.5599 30.74 25.9799C30.74 26.3899 30.41 26.7299 29.99 26.7299L25.32 26.7499C25.33 26.7499 25.32 26.7499 25.32 26.7499Z" fill="#A3A3A3"/>
<path d="M29.9999 14.77C29.8099 14.77 29.6199 14.7 29.4699 14.55L27.4699 12.55C27.1799 12.26 27.1799 11.78 27.4699 11.49C27.7599 11.2 28.2399 11.2 28.5299 11.49L30.5299 13.49C30.8199 13.78 30.8199 14.26 30.5299 14.55C30.3799 14.7 30.1899 14.77 29.9999 14.77Z" fill="#A3A3A3"/>
</svg>
