<svg width="41" height="40" viewBox="0 0 41 40" fill="none" xmlns="http://www.w3.org/2000/svg">
<path d="M24.6901 28.0899C24.1201 28.0899 23.5601 27.9399 23.0401 27.6399L14.7501 22.8599C13.7201 22.2599 13.1001 21.1899 13.1001 19.9999C13.1001 18.8099 13.7201 17.7399 14.7501 17.1399L23.0401 12.3599C24.0701 11.7599 25.3001 11.7599 26.3401 12.3599C27.3801 12.9599 27.9901 14.0199 27.9901 15.2199V24.7899C27.9901 25.9799 27.3701 27.0499 26.3401 27.6499C25.8201 27.9399 25.2601 28.0899 24.6901 28.0899ZM24.6901 13.4099C24.3801 13.4099 24.0701 13.4899 23.7901 13.6499L15.5001 18.4299C14.9401 18.7599 14.6001 19.3399 14.6001 19.9899C14.6001 20.6399 14.9401 21.2199 15.5001 21.5499L23.7901 26.3299C24.3501 26.6599 25.0301 26.6599 25.5901 26.3299C26.1501 25.9999 26.4901 25.4199 26.4901 24.7699V15.1999C26.4901 14.5499 26.1501 13.9699 25.5901 13.6399C25.3101 13.4999 25.0001 13.4099 24.6901 13.4099Z" fill="#171621"/>
<path d="M10.7598 26.9301C10.3498 26.9301 10.0098 26.5901 10.0098 26.1801V13.8201C10.0098 13.4101 10.3498 13.0701 10.7598 13.0701C11.1698 13.0701 11.5098 13.4101 11.5098 13.8201V26.1801C11.5098 26.5901 11.1698 26.9301 10.7598 26.9301Z" fill="#171621"/>
</svg>
