<svg width="41" height="40" viewBox="0 0 41 40" fill="none" xmlns="http://www.w3.org/2000/svg">
<path d="M11.91 25.1799C11.72 25.1799 11.53 25.1099 11.38 24.9599C10.01 23.5799 9.25 21.7599 9.25 19.8299C9.25 15.8199 12.5 12.5599 16.5 12.5599L22.57 12.5799L21.48 11.5399C21.18 11.2499 21.17 10.7799 21.46 10.4799C21.75 10.1799 22.22 10.1699 22.52 10.4599L24.96 12.7999C25.18 13.0099 25.25 13.3399 25.14 13.6199C25.03 13.8999 24.75 14.09 24.44 14.09L16.49 14.0699C13.32 14.0699 10.74 16.66 10.74 19.84C10.74 21.37 11.34 22.8199 12.43 23.9099C12.72 24.1999 12.72 24.6799 12.43 24.9699C12.29 25.1099 12.1 25.1799 11.91 25.1799Z" fill="#A3A3A3"/>
<path d="M17.9999 29.75C17.8099 29.75 17.6299 29.6799 17.4799 29.5399L15.0399 27.2C14.8199 26.99 14.7499 26.66 14.8599 26.38C14.9699 26.1 15.2499 25.9099 15.5599 25.9099L23.5099 25.93C26.6799 25.93 29.2599 23.3399 29.2599 20.1599C29.2599 18.6299 28.6599 17.18 27.5699 16.09C27.2799 15.8 27.2799 15.32 27.5699 15.03C27.8599 14.74 28.3399 14.74 28.6299 15.03C29.9999 16.41 30.7599 18.2299 30.7599 20.1599C30.7599 24.1699 27.5099 27.43 23.5099 27.43L17.4399 27.4099L18.5299 28.45C18.8299 28.74 18.8399 29.21 18.5499 29.51C18.3899 29.67 18.1999 29.75 17.9999 29.75Z" fill="#A3A3A3"/>
<path d="M23 20.75H17C16.59 20.75 16.25 20.41 16.25 20C16.25 19.59 16.59 19.25 17 19.25H23C23.41 19.25 23.75 19.59 23.75 20C23.75 20.41 23.41 20.75 23 20.75Z" fill="#A3A3A3"/>
</svg>
