<svg width="41" height="40" viewBox="0 0 41 40" fill="none" xmlns="http://www.w3.org/2000/svg">
<path d="M15.3098 28.0899C14.7398 28.0899 14.1798 27.9399 13.6598 27.6399C12.6198 27.0399 12.0098 25.9799 12.0098 24.7799V15.2099C12.0098 14.0199 12.6298 12.9499 13.6598 12.3499C14.6998 11.7499 15.9297 11.7499 16.9597 12.3499L25.2498 17.1299C26.2798 17.7299 26.8997 18.7999 26.8997 19.9899C26.8997 21.1799 26.2798 22.2499 25.2498 22.8499L16.9597 27.6299C16.4397 27.9399 15.8798 28.0899 15.3098 28.0899ZM15.3098 13.4099C14.9998 13.4099 14.6898 13.4899 14.4098 13.6499C13.8498 13.9799 13.5098 14.5599 13.5098 15.2099V24.7799C13.5098 25.4299 13.8498 26.0099 14.4098 26.3399C14.9698 26.6599 15.6497 26.6699 16.2097 26.3399L24.4998 21.5599C25.0598 21.2299 25.3997 20.6499 25.3997 19.9999C25.3997 19.3499 25.0598 18.7699 24.4998 18.4399L16.2097 13.6599C15.9297 13.4999 15.6198 13.4099 15.3098 13.4099Z" fill="#171621"/>
<path d="M29.2402 26.9301C28.8302 26.9301 28.4902 26.5901 28.4902 26.1801V13.8201C28.4902 13.4101 28.8302 13.0701 29.2402 13.0701C29.6502 13.0701 29.9902 13.4101 29.9902 13.8201V26.1801C29.9902 26.5901 29.6602 26.9301 29.2402 26.9301Z" fill="#171621"/>
</svg>
